{"title":"Ticking Clock 2011 DVDrip English Klam","uid":6818263,"size":1241847116,"categoryP":"video","categoryS":"movies","magnet":"?xt=urn:btih:6c2455d82f8fbbda30fe940b3266c63807af5e91&amp;dn=Ticking+Clock+2011+DVDrip+English+Klam&amp;tr=udp%3A%2F%2Ftracker.openbittorrent.com%3A80&amp;tr=udp%3A%2F%2Fopen.demonii.com%3A1337&amp;tr=udp%3A%2F%2Ftracker.coppersurfer.tk%3A6969&amp;tr=udp%3A%2F%2Fexodus.desync.com%3A6969","seeders":1,"leechers":0,"uploader":"Klambake","files":-1,"time":1321303147,"description":"With: Cuba Gooding Jr., Neal McDonough en Austin Abrams\n\nLewis Hicks (Cuba Gooding Jr.) is een misdaadverslaggever die gespecialiseerd is in de meest brute moorden. Wanneer hij het verminkte lichaam van zijn nieuwe vriendin vindt en per toeval op een dagboek stuit waarin de toekomstige slachtoffers van de seriemoordenaar te vinden zijn, besluit hij zelf op onderzoek uit te gaan. Hij komt er achter dat elk spoor leidt naar een 11-jarig weesjongetje dat in een opvangtehuis woont.\n\nA reporter stumbles upon the journal of a murderer replete with plans to butcher specific people, and investigates on his own, finding that every trail leads to a 9-year-old orphan living in a group home. \n\n------------------ Dutch Friends ------------------\nYou can find my Friends at: http://www.Film-Test.nl \n------ They got my dutch subs ----- and more ------\n\nGeneral:\n\nComplete name                    : Ticking Clock\\Ticking Clock.avi\nFormat                           : AVI\nFormat/Info                      : Audio Video Interleave\nFile size                        : 1.15 GiB\nDuration                         : 1h 37mn\nOverall bit rate                 : 1 703 Kbps\n\nVideo:\n\nFormat                           : MPEG-4 Visual\nFormat profile                   : Simple@L3\nFormat settings, BVOP            : No\nFormat settings, QPel            : No\nFormat settings, GMC             : No warppoints\nFormat settings, Matrix          : Default (H.263)\nCodec ID                         : XVID\nCodec ID/Hint                    : XviD\nDuration                         : 1h 37mn\nBit rate                         : 1 244 Kbps\nWidth                            : 652 pixels\nHeight                           : 352 pixels\nDisplay aspect ratio             : 1.852\nFrame rate                       : 25.000 fps\nColor space                      : YUV\nChroma subsampling               : 4:2:0\nBit depth                        : 8 bits\nScan type                        : Progressive\nCompression mode                 : Lossy\nBits/(Pixel*Frame)               : 0.217\nStream size                      : 863 MiB (73%)\nWriting library                  : XviD 1.1.2 (UTC 2006-11-01)\n\nAudio:\n\nFormat                           : AC-3\nFormat/Info                      : Audio Coding 3\nMode extension                   : CM (complete main)\nCodec ID                         : 2000\nDuration                         : 1h 37mn\nBit rate mode                    : Constant\nBit rate                         : 448 Kbps\nChannel(s)                       : 6 channels\nChannel positions                : Front: L C R, Side: L R, LFE\nSampling rate                    : 48.0 KHz\nBit depth                        : 16 bits\nCompression mode                 : Lossy\nStream size                      : 311 MiB (26%)\nAlignment                        : Aligned on interleaves\nInterleave, duration             : 32 ms (0.80 video frame)\nInterleave, preload duration     : 256 ms\n\n","torrent":{"xt":"urn:btih:6c2455d82f8fbbda30fe940b3266c63807af5e91","amp;dn":"Ticking+Clock+2011+DVDrip+English+Klam","amp;tr":["udp%3A%2F%2Ftracker.openbittorrent.com%3A80","udp%3A%2F%2Fopen.demonii.com%3A1337","udp%3A%2F%2Ftracker.coppersurfer.tk%3A6969","udp%3A%2F%2Fexodus.desync.com%3A6969"],"infoHash":"6c2455d82f8fbbda30fe940b3266c63807af5e91","infoHashBuffer":{"type":"Buffer","data":[108,36,85,216,47,143,187,218,48,254,148,11,50,102,198,56,7,175,94,145]},"announce":[],"urlList":[]}}